<svg version="1" xmlns="http://www.w3.org/2000/svg" width="413.333" height="413.333" viewBox="0 0 310 310"><metadata><?xpacket begin="﻿" id="W5M0MpCehiHzreSzNTczkc9d"?>
<x:xmpmeta xmlns:x="adobe:ns:meta/" x:xmptk="Adobe XMP Core 5.6-c143 79.161356, 2017/09/07-01:11:22        ">
   <rdf:RDF xmlns:rdf="http://www.w3.org/1999/02/22-rdf-syntax-ns#">
      <rdf:Description rdf:about=""
            xmlns:xmpRights="http://ns.adobe.com/xap/1.0/rights/"
            xmlns:dc="http://purl.org/dc/elements/1.1/"
            xmlns:Iptc4xmpCore="http://iptc.org/std/Iptc4xmpCore/1.0/xmlns/"
            xmlns:xmp="http://ns.adobe.com/xap/1.0/"
            xmlns:xmpMM="http://ns.adobe.com/xap/1.0/mm/"
            xmlns:stEvt="http://ns.adobe.com/xap/1.0/sType/ResourceEvent#">
         <xmpRights:Marked>True</xmpRights:Marked>
         <dc:creator>
            <rdf:Seq>
               <rdf:li>anlex N</rdf:li>
            </rdf:Seq>
         </dc:creator>
         <Iptc4xmpCore:CreatorContactInfo>
            <rdf:Description>
               <Iptc4xmpCore:CiTelWork>+8613332978767</Iptc4xmpCore:CiTelWork>
               <Iptc4xmpCore:CiEmailWork>1293006794@qq.com</Iptc4xmpCore:CiEmailWork>
               <Iptc4xmpCore:CiUrlWork>anlexn.github.io</Iptc4xmpCore:CiUrlWork>
            </rdf:Description>
         </Iptc4xmpCore:CreatorContactInfo>
         <xmp:MetadataDate>2018-05-04T16:23:15+08:00</xmp:MetadataDate>
         <xmpMM:InstanceID>xmp.iid:5da17009-14a9-094c-a5b1-30651a714150</xmpMM:InstanceID>
         <xmpMM:DocumentID>xmp.did:5da17009-14a9-094c-a5b1-30651a714150</xmpMM:DocumentID>
         <xmpMM:OriginalDocumentID>xmp.did:5da17009-14a9-094c-a5b1-30651a714150</xmpMM:OriginalDocumentID>
         <xmpMM:History>
            <rdf:Seq>
               <rdf:li>
                  <rdf:Description>
                     <stEvt:action>saved</stEvt:action>
                     <stEvt:instanceID>xmp.iid:5da17009-14a9-094c-a5b1-30651a714150</stEvt:instanceID>
                     <stEvt:when>2018-05-04T16:23:15+08:00</stEvt:when>
                     <stEvt:softwareAgent>Adobe Bridge CC 2018 (Windows)</stEvt:softwareAgent>
                     <stEvt:changed>/metadata</stEvt:changed>
                  </rdf:Description>
               </rdf:li>
            </rdf:Seq>
         </xmpMM:History>
      </rdf:Description>
   </rdf:RDF>
</x:xmpmeta>
                                                                                                    
                                                                                                    
                                                                                                    
                                                                                                    
                                                                                                    
                                                                                                    
                                                                                                    
                                                                                                    
                                                                                                    
                                                                                                    
                                                                                                    
                                                                                                    
                                                                                                    
                                                                                                    
                                                                                                    
                                                                                                    
                                                                                                    
                                                                                                    
                                                                                                    
                                                                                                    
                           
<?xpacket end="w"?></metadata>
<path d="M234 13c0 .5.5 1 1.1 1 .5 0 .7-.5.4-1-.3-.6-.8-1-1.1-1-.2 0-.4.4-.4 1zM120.5 17.9c-.3.5-.2 1.2.3 1.5.5.3.9-.1.9-.9 0-1.7-.3-1.9-1.2-.6zM219 30.6c.8 1 1.5 2 1.6 2.2.1.2.4-.1.7-.5.3-.5-.4-1.5-1.6-2.3-2.1-1.2-2.1-1.2-.7.6zM174.1 36.6c0 1.1.3 1.4.6.6.3-.7.2-1.6-.1-1.9-.3-.4-.6.2-.5 1.3zM176.5 36.1c-.3.4.2.6 1 .5 2.1-.3 2.8-1.3 1-1.3-.9 0-1.8.4-2 .8zM157.3 46.7c0 .9.4 1 1.4.2.7-.6 1.3-1.2 1.3-1.4 0-.1-.6-.2-1.3-.2-.8 0-1.4.6-1.4 1.4zM38 52c-.9.6-1 1-.3 1 .6 0 1.5-.5 1.8-1 .8-1.2.4-1.2-1.5 0zM60.5 52.1c-.4.6-.5 1.2-.2 1.5.2.3.7-.2 1-1.1.7-1.7.1-2-.8-.4zM137 53.5c0 .7.5 1.7 1.2 2.1.6.4.8.3.4-.4-.3-.5-.1-1.2.6-1.4.8-.3.6-.7-.5-1.1-1.1-.4-1.7-.1-1.7.8zM90.3 60.5c0 .8.4 1.5.9 1.5.4 0 .8-.4.8-.9 0-.6-.4-1.2-.8-1.5-.5-.3-.9.1-.9.9zM226.8 59.7c.7.3 1.6.2 1.9-.1.4-.3-.2-.6-1.3-.5-1.1 0-1.4.3-.6.6zM121.6 60.8c-.3.5.1.9.9.9s1.2-.4.9-.9c-.3-.4-.7-.8-.9-.8-.2 0-.6.4-.9.8zM249 60.7c0 .6.8 1.7 1.8 2.4 1.6 1.3 1.6 1.3.2-.6-.8-1.1-1.6-2.2-1.7-2.4-.2-.2-.3 0-.3.6zM229 62c0 .5.5 1 1.1 1 .5 0 .7-.5.4-1-.3-.6-.8-1-1.1-1-.2 0-.4.4-.4 1zM261 63c-.9.6-1 1-.3 1 .6 0 1.5-.5 1.8-1 .8-1.2.4-1.2-1.5 0zM147.6 64.8c-.3.5.1.9.9.9s1.2-.4.9-.9c-.3-.4-.7-.8-.9-.8-.2 0-.6.4-.9.8zM157.3 66.5c0 .8.4 1.2.9.9.5-.3.6-1 .3-1.5-.9-1.3-1.2-1.1-1.2.6zM217.6 66.2c.3.5 1 .6 1.5.3 1.3-.9 1.1-1.2-.6-1.2-.8 0-1.2.4-.9.9zM143.5 67c.3.5.8 1 1.1 1 .2 0 .4-.5.4-1 0-.6-.5-1-1.1-1-.5 0-.7.4-.4 1zM78.6 67.9c-.3.4.6.6 1.9.3 1.4-.2 2.5-.6 2.5-.8 0-.8-3.9-.4-4.4.5zM207.3 69.4c-.1 1.2.1 1.5.4.8.3-.6.8-1 1.2-.8.4.3.8-.1.8-.8 0-2.2-2.3-1.4-2.4.8zM146 68.7c0 .6.7 1.6 1.5 2.3 1.3 1.1 1.8 1.1 2.8 0 1-1 .9-1.1-.2-.5-.9.5-1.9.1-2.8-1-.7-1.1-1.3-1.4-1.3-.8zM225.6 69.7c-.6 1.4-.5 1.5.5.6.7-.7 1-1.5.7-1.8-.3-.3-.9.2-1.2 1.2zM136 70.1c0 .5.5.7 1 .4.6-.3 1-.8 1-1.1 0-.2-.4-.4-1-.4-.5 0-1 .5-1 1.1zM173.6 71.3c.3 1 .9 1.5 1.2 1.2.3-.3 0-1.1-.7-1.8-1-.9-1.1-.8-.5.6zM79 71.4c0 .2.8 1 1.8 1.7 1.5 1.3 1.6 1.2.3-.4S79 70.6 79 71.4zM164.7 71.7c-.3.5.6.9 2 1 1.9.1 2.2-.1 1.2-.8-1.7-1.1-2.6-1.1-3.2-.2zM127.6 74.9c-.3.5.1 1.1.9 1.4.9.4 1.2.1.8-.9-.6-1.6-1-1.7-1.7-.5zM185 75.1c-1.2.9-1.2 1 .4.5 1.1-.4 2.3-.1 2.8.6.7 1 .9 1 .6-.1-.6-2-2-2.3-3.8-1zM193.5 75c-.3.5-.1 1 .4 1 .6 0 1.1-.5 1.1-1 0-.6-.2-1-.4-1-.3 0-.8.4-1.1 1zM210.6 75.5c-.3.8-.1 1.5.4 1.5.6 0 1-.7 1-1.5s-.2-1.5-.4-1.5-.6.7-1 1.5zM279 74.9c0 .5.7 1.2 1.6 1.5 1.4.5 1.5.4.4-.9-1.4-1.7-2-1.9-2-.6zM145.7 77.6c.2.6 1.4 1.4 2.6 1.8 2 .5 2 .4.5-.8-1-.7-1.6-1.5-1.3-1.8.3-.2-.1-.5-.9-.5s-1.2.6-.9 1.3zM76.5 78c-.3.5-.1 1 .4 1 .6 0 1.1-.5 1.1-1 0-.6-.2-1-.4-1-.3 0-.8.4-1.1 1zM98 79c-.9.6-1 1-.3 1 .6 0 1.5-.5 1.8-1 .8-1.2.4-1.2-1.5 0zM125.5 80c.3.5.8 1 1.1 1 .2 0 .4-.5.4-1 0-.6-.5-1-1.1-1-.5 0-.7.4-.4 1zM129.5 80c2.7 1.2 4.3 1.2 2.5 0-.8-.5-2.2-.9-3-.9-1 0-.8.3.5.9zM46.3 82.5c0 .8.4 1.2.9.9.5-.3.6-1 .3-1.5-.9-1.3-1.2-1.1-1.2.6zM140 82c0 .5.5 1 1.1 1 .5 0 .7-.5.4-1-.3-.6-.8-1-1.1-1-.2 0-.4.4-.4 1zM181.6 82.1c.4.7 4.4 0 4.4-.7 0-.2-1.1-.3-2.4-.2-1.4.1-2.3.5-2 .9zM103.8 82.7c.7.3 1.6.2 1.9-.1.4-.3-.2-.6-1.3-.5-1.1 0-1.4.3-.6.6zM178.6 84.2c.3.4.9.8 1.5.8.5 0 .9-.4.9-.8 0-.5-.7-.9-1.5-.9s-1.2.4-.9.9zM86.3 85c.2.8 1 1.5 1.8 1.5s2 .4 2.7.8c.7.5 1.2.4 1.2-.2 0-1.1-.5-1.3-3.2-1.5-.7-.1-1.7-.6-2.1-1.1-.5-.6-.7-.4-.4.5zM113 84.4c0 .2.7.7 1.6 1 .8.3 1.2.2.9-.4-.6-1-2.5-1.4-2.5-.6zM146 84.4c0 .2.7.7 1.6 1 .8.3 1.2.2.9-.4-.6-1-2.5-1.4-2.5-.6zM139.5 87.1c-.4.6-.5 1.2-.2 1.5.2.3.7-.2 1-1.1.7-1.7.1-2-.8-.4zM249.5 87.1c-.4.6-.5 1.2-.2 1.5.2.3.7-.2 1-1.1.7-1.7.1-2-.8-.4zM253.6 87.5c.4.8.8 1.5 1 1.5.2 0 .4-.7.4-1.5s-.4-1.5-1-1.5c-.5 0-.7.7-.4 1.5zM177.1 87.6c-.1 1.8 2.6 3.7 3.4 2.4.3-.5 0-1-.9-1-.8 0-1.7-.6-1.9-1.3-.4-.7-.6-.8-.6-.1zM190.5 88.1c-.4.6-.5 1.2-.2 1.5.2.3.7-.2 1-1.1.7-1.7.1-2-.8-.4zM108.5 89.1c-1.1 1.6-.1 1.9 1.3.3.7-.8.8-1.4.3-1.4s-1.3.5-1.6 1.1zM159 88.4c0 .2.7.7 1.6 1 .8.3 1.2.2.9-.4-.6-1-2.5-1.4-2.5-.6zM244 89.1c0 .5.5.7 1 .4.6-.3 1-.8 1-1.1 0-.2-.4-.4-1-.4-.5 0-1 .5-1 1.1zM35 89.4c0 .2.7.7 1.6 1 .8.3 1.2.2.9-.4-.6-1-2.5-1.4-2.5-.6zM169.6 90.7c-.6 1.4-.5 1.5.5.6.7-.7 1-1.5.7-1.8-.3-.3-.9.2-1.2 1.2zM215.9 91.7c-1.3 1.7-1.3 1.7.6.3 1.1-.8 2.2-1.6 2.4-1.7.2-.2 0-.3-.6-.3s-1.7.8-2.4 1.7zM283.6 91.7c-.6 1.4-.5 1.5.5.6.7-.7 1-1.5.7-1.8-.3-.3-.9.2-1.2 1.2zM288.5 91c-.3.6.1.7.9.4 1.8-.7 2.1-1.4.7-1.4-.6 0-1.3.4-1.6 1zM236 93.1c.7 1.1 1.4 1.9 1.6 1.6.7-.7-.7-3.7-1.7-3.7-.6 0-.5.9.1 2.1zM243 94c-.6 1.1-.9 2-.8 2 .2 0 1.1-.9 2.1-2 .9-1.1 1.3-2 .7-2-.5 0-1.4.9-2 2zM125.6 93.8c-.3.5.1.9.9.9s1.2-.4.9-.9c-.3-.4-.7-.8-.9-.8-.2 0-.6.4-.9.8zM173 94.1c0 .5.5.7 1 .4.6-.3 1-.8 1-1.1 0-.2-.4-.4-1-.4-.5 0-1 .5-1 1.1zM107 94.3c0 .2.6 1 1.4 1.6 1.1.9 1.6.9 2.2-.1.4-.7.4-1-.1-.6-.4.4-1.4.3-2.2-.3-.7-.6-1.3-.9-1.3-.6zM144.5 95.1c-.3.4.1.9.9 1.2.8.3 1.7 0 1.9-.7.5-1.3-2.1-1.8-2.8-.5zM262.5 95.1c-.4.6-.5 1.2-.2 1.5.2.3.7-.2 1-1.1.7-1.7.1-2-.8-.4zM118.9 96.7c-1.3 1.5-1.2 1.5.9.4 2.3-1.2 2.8-2.1 1.3-2.1-.5 0-1.5.7-2.2 1.7zM193 96.5c-.7.8-.9 1.5-.6 1.5.4 0 1.4-.7 2.2-1.5.9-.8 1.1-1.5.6-1.5-.5 0-1.5.7-2.2 1.5zM131.6 96.9c-.4.7-.5 1.5-.2 1.8.9.9 1.9-.4 1.4-1.8-.4-1.1-.6-1.1-1.2 0zM167.5 97c.3.5.8 1 1.1 1 .2 0 .4-.5.4-1 0-.6-.5-1-1.1-1-.5 0-.7.4-.4 1zM170.5 97.1c-.9 1.4-.2 2 1.4 1 .8-.6.9-1.1.3-1.5-.6-.3-1.4-.1-1.7.5zM251.8 96.7c.7.3 1.6.2 1.9-.1.4-.3-.2-.6-1.3-.5-1.1 0-1.4.3-.6.6zM222.6 98.2c.3.5 1 .6 1.5.3 1.3-.9 1.1-1.2-.6-1.2-.8 0-1.2.4-.9.9zM288.6 97.8c-.3.5.1.9.9.9s1.2-.4.9-.9c-.3-.4-.7-.8-.9-.8-.2 0-.6.4-.9.8zM155.5 99c2.7 1.2 4.3 1.2 2.5 0-.8-.5-2.2-.9-3-.9-1 0-.8.3.5.9zM77 100c-.9.6-1 1-.3 1 .6 0 1.5-.5 1.8-1 .8-1.2.4-1.2-1.5 0zM85 99.9c0 .6.4 1.3 1 1.6.6.3.7-.1.4-.9-.7-1.8-1.4-2.1-1.4-.7zM265.8 99.7c.6.2.9 1 .6 1.5-.4.7-.2.8.5.4 1.3-.9.5-2.6-1.2-2.5-.9 0-.8.2.1.6zM175.6 101.5c.4.8.7 1.5.9 1.5.2 0 .5-.7.9-1.5.3-.9 0-1.5-.9-1.5s-1.2.6-.9 1.5zM186.5 101c.3.5.8 1 1.1 1 .2 0 .4-.5.4-1 0-.6-.5-1-1.1-1-.5 0-.7.4-.4 1zM43.5 102.1c-.4.6-.5 1.2-.2 1.5.2.3.7-.2 1-1.1.7-1.7.1-2-.8-.4zM108.6 102.3c.3 1 .9 1.5 1.2 1.2.3-.3 0-1.1-.7-1.8-1-.9-1.1-.8-.5.6zM112.5 102c.3.5.8 1 1.1 1 .2 0 .4-.5.4-1 0-.6-.5-1-1.1-1-.5 0-.7.4-.4 1zM74.5 103c-.3.5-.1 1 .4 1 .6 0 1.1-.5 1.1-1 0-.6-.2-1-.4-1-.3 0-.8.4-1.1 1zM117.5 102.9c-.3.5 0 1.3.6 1.7.7.4.9.3.5-.4-.3-.5 0-1.3.6-1.5.9-.4 1-.6.1-.6-.6-.1-1.4.3-1.8.8zM210.8 103c1.2.5 2.5 1.6 2.8 2.5.4.8 1.1 1.5 1.7 1.5.5 0 .3-.8-.6-1.8-1-1-1.5-2.1-1.2-2.3.2-.3-.8-.5-2.3-.6-2.6-.2-2.6-.1-.4.7zM215 102.6c0 .1.8.8 1.7 1.5.9.8 1.4.9 1 .2-.4-.6-.1-1.3.5-1.6.7-.3.3-.4-.9-.4-1.3.1-2.3.2-2.3.3zM104 103.4c0 .2.8 1 1.8 1.7 1.5 1.3 1.6 1.2.3-.4s-2.1-2.1-2.1-1.3zM123 104c0 .5.5 1 1.1 1 .5 0 .7-.5.4-1-.3-.6-.8-1-1.1-1-.2 0-.4.4-.4 1zM49 105c0 .5.5 1 1.1 1 .5 0 .7-.5.4-1-.3-.6-.8-1-1.1-1-.2 0-.4.4-.4 1zM177.5 105c-.3.5-.1 1 .4 1 .6 0 1.1-.5 1.1-1 0-.6-.2-1-.4-1-.3 0-.8.4-1.1 1zM195.8 104.7c.6.2 1.8.2 2.5 0 .6-.3.1-.5-1.3-.5-1.4 0-1.9.2-1.2.5zM263.5 104.9c-.3.5-.2 1.2.3 1.5.5.3.9-.1.9-.9 0-1.7-.3-1.9-1.2-.6zM166 105.8c0 .5.7 1.3 1.6 1.6 2.3.9 2.4.8 2.3-1.2 0-1.1-.2-1.2-.6-.4-.4 1-.8 1-1.9.1-.8-.7-1.4-.7-1.4-.1zM221.7 106.3c-.3.8.1 1.4.8 1.4.7 0 1.1-.6.8-1.4-.3-.7-.6-1.3-.8-1.3-.2 0-.5.6-.8 1.3zM205.6 107.7c-.6 1.4-.5 1.5.5.6.7-.7 1-1.5.7-1.8-.3-.3-.9.2-1.2 1.2zM178.7 109c-.9 1.1-2.5 2-3.4 2-1.5 0-1.5.2-.4.9s2.2.2 3.8-1.5c2.1-2.3 2.8-3.4 2-3.4-.1 0-1 .9-2 2zM54.3 109.5c0 .8.4 1.2.9.9.5-.3.6-1 .3-1.5-.9-1.3-1.2-1.1-1.2.6zM69.6 109.3c.3 1 .9 1.5 1.2 1.2.3-.3 0-1.1-.7-1.8-1-.9-1.1-.8-.5.6zM82.5 109.1c-.4.6-.5 1.2-.2 1.5.2.3.7-.2 1-1.1.7-1.7.1-2-.8-.4zM110.6 108.8c-.3.5.1.9.9.9s1.2-.4.9-.9c-.3-.4-.7-.8-.9-.8-.2 0-.6.4-.9.8zM129 109c0 .5.5 1 1.1 1 .5 0 .7-.5.4-1-.3-.6-.8-1-1.1-1-.2 0-.4.4-.4 1zM141 109.9c0 2.5.6 2.7 1.3.6.4-.8.2-1.7-.3-2-.6-.4-1 .3-1 1.4zM155.6 109.5c-.3.8-.1 1.5.4 1.5.6 0 1-.7 1-1.5s-.2-1.5-.4-1.5-.6.7-1 1.5zM160 109.5c-1.1 1.3-1 1.4.4.9.9-.3 1.6-1 1.6-1.5 0-1.3-.6-1.1-2 .6zM150.5 110c-.4.6-1.2.9-1.9.7-.7-.3-1.3.5-1.4 1.6-.1 1.6.1 1.8.7.8.5-.8 1.4-1 2.1-.6.8.5 1.1.4.6-.3-.3-.5 0-1.2.6-1.5.7-.2 1-.7.7-1.1-.4-.4-1-.2-1.4.4zM171.6 110.3c.3 1 .9 1.5 1.2 1.2.3-.3 0-1.1-.7-1.8-1-.9-1.1-.8-.5.6zM208.6 110.2c.3.5 1 .6 1.5.3 1.3-.9 1.1-1.2-.6-1.2-.8 0-1.2.4-.9.9zM164.4 111.1c-.4.7-.3.9.4.5.5-.3 1.3 0 1.5.6.4.9.6 1 .6.1.1-1.7-1.6-2.5-2.5-1.2zM50.4 111.8c.3.5 0 1.3-.6 1.5-.9.4-1 .6-.1.6 1.7.1 2.5-1.6 1.2-2.5-.7-.4-.9-.3-.5.4zM101 113.2c-1.2 2.2-1.2 2.2.6.6 1-1 1.5-2 1.2-2.4-.4-.3-1.2.5-1.8 1.8zM125.6 112.5c-1.1.8-1.5 1.5-.9 1.5s1.6-.7 2.3-1.5c1.6-1.9 1.1-1.9-1.4 0zM133 113c0 .5.5 1 1.1 1 .5 0 .7-.5.4-1-.3-.6-.8-1-1.1-1-.2 0-.4.4-.4 1zM169.6 113.7c-.6 1.4-.5 1.5.5.6.7-.7 1-1.5.7-1.8-.3-.3-.9.2-1.2 1.2zM222.6 113.3c-1.4 1-1.5 1.4-.4 1.4.7 0 1.9-.6 2.6-1.4.7-.7.9-1.3.4-1.3-.4 0-1.6.6-2.6 1.3zM35 115.5c-.7.9-1.1 1.7-.9 2 .3.2 1-.5 1.7-1.5 1.4-2.4 1-2.6-.8-.5zM107.2 116c-1.1 1.8-1 2 .8 1.7 2.2-.4 3.9-1.7 2.1-1.7-.7 0-.9-.5-.6-1 .3-.6.2-1-.2-1-.5 0-1.4.9-2.1 2zM66.6 116.2c.3.5 1 .6 1.5.3 1.3-.9 1.1-1.2-.6-1.2-.8 0-1.2.4-.9.9zM148.7 116.1c.7.7 1.5 1 1.8.7.3-.3-.2-.9-1.2-1.2-1.4-.6-1.5-.5-.6.5zM171.3 117.5c-1.5 1.4-1.9 2.5-1.3 3.5.5.8.5 1.9 0 2.5-.6.8-.5 1.2.4 1.2 1.3 0 1.4-3.2.2-4.5-.3-.2.5-1.3 1.7-2.2 1.2-1 2-2 1.7-2.2-.3-.2-1.5.5-2.7 1.7zM192 115.9c0 .7-.5.9-1.2.5-.7-.5-.8-.3-.3.5.5.9 1 1 1.8.2.6-.6.8-1.4.4-1.8-.4-.3-.7-.1-.7.6zM257.8 115.7c.7.3 1.6.2 1.9-.1.4-.3-.2-.6-1.3-.5-1.1 0-1.4.3-.6.6zM99.1 117.6c0 1.1.3 1.4.6.6.3-.7.2-1.6-.1-1.9-.3-.4-.6.2-.5 1.3zM122 116.9c0 .7-.4 1-.8.7-.5-.3-.9.2-.9 1 0 1.3.2 1.3 1.6 0 .8-.9 1.2-1.9.8-2.2-.4-.4-.7-.2-.7.5zM134 117c0 .5.5 1 1.1 1 .5 0 .7-.5.4-1-.3-.6-.8-1-1.1-1-.2 0-.4.4-.4 1zM180 116.4c0 .2.7.7 1.6 1 .8.3 1.2.2.9-.4-.6-1-2.5-1.4-2.5-.6zM195.6 117.2c.3.4.9.8 1.5.8.5 0 .9-.4.9-.8 0-.5-.7-.9-1.5-.9s-1.2.4-.9.9zM15.6 118.2c.3.5 1 .6 1.5.3 1.3-.9 1.1-1.2-.6-1.2-.8 0-1.2.4-.9.9zM145.6 117.9c-.3.5 0 1.1.7 1.4.8.3 1.4-.1 1.4-.9 0-1.6-1.3-1.9-2.1-.5zM37 118.4c0 .2.9.6 2 .9 1.1.3 1.8.1 1.4-.4-.5-.9-3.4-1.3-3.4-.5zM187.5 119c.3.5 1.6 1.5 2.8 2.1l2.2 1.1-2.2-2.1c-2.3-2.2-3.9-2.8-2.8-1.1zM203 119.1c0 2.2 2.7 3.2 3.4 1.3.4-.9.2-1.2-.5-.8-.6.4-1.5 0-2-.7-.7-1.1-.9-1.1-.9.2zM264.3 119.5c0 .8.4 1.2.9.9.5-.3.6-1 .3-1.5-.9-1.3-1.2-1.1-1.2.6zM212 119.9c0 .6.4 1.3 1 1.6.6.3.7-.1.4-.9-.7-1.8-1.4-2.1-1.4-.7zM83 121c0 .5.5 1 1 1 .6 0 1-.5 1-1 0-.6-.4-1-1-1-.5 0-1 .4-1 1zM148.5 121.1c-.4.6-1.3.8-2.1.5-.8-.3-1.1 0-.7 1 .7 1.8 2.2 1.8 2.9-.1.4-.8 1.1-1.2 1.7-.8.6.3.7.1.3-.5-.9-1.5-1.3-1.5-2.1-.1zM62.5 121.9c-.3.5-.2 1.2.3 1.5.5.3.9-.1.9-.9 0-1.7-.3-1.9-1.2-.6zM182 122.6c0 .8.5 1.2 1 .9.6-.4.8-1.1.5-1.6-.9-1.4-1.5-1.1-1.5.7zM221.8 121.7c.7.3 1.6.2 1.9-.1.4-.3-.2-.6-1.3-.5-1.1 0-1.4.3-.6.6zM242.2 121.9c-1.1.6-.9.9.6 1.3s1.9.2 1.5-.8c-.6-1.6-.4-1.6-2.1-.5zM81 123.4c0 .8.4 1.7.9 2 .5.4.7-.3.4-1.4-.6-2.3-1.3-2.6-1.3-.6zM121.4 123.5c-.4.8-1.1 1.2-1.7.8-.6-.3-.2.5.9 1.9 1 1.5 2.1 2.1 2.3 1.5.2-.6-.1-1.3-.7-1.5-.9-.3-.9-.9-.2-2.3.6-1 .8-1.9.5-1.9-.3 0-.8.7-1.1 1.5zM139.5 123c-.3.5.1 1.3 1 1.6 2.2.9 2.9-.1 1.1-1.5-1-.8-1.6-.9-2.1-.1zM157.2 124.6c-.1 1.3 0 2.4.2 2.4.7 0 1.4-4 .7-4.4-.4-.3-.8.6-.9 2zM226 122.4c0 .2.7.7 1.6 1 .8.3 1.2.2.9-.4-.6-1-2.5-1.4-2.5-.6zM107 125.5c-.7.9-1 1.8-.6 2.2.3.3.6.1.6-.7 0-1 .4-1 1.8.1 1.5 1.2 1.6 1.2.5-.2-.7-.9-1-1.9-.6-2.2.3-.4.4-.7.1-.7-.3 0-1.1.7-1.8 1.5zM113.1 125.6c0 1.1.3 1.4.6.6.3-.7.2-1.6-.1-1.9-.3-.4-.6.2-.5 1.3zM150.6 124.8c-.2.4-.1 1.4.4 2.2.7 1.1.9.9.7-.8-.1-2.4-.3-2.6-1.1-1.4zM164.9 124.7c-.1.5-.1 1.1 0 1.5 0 .5-.3.8-.9.8-.5 0-1 .4-1 .9 0 .8.8.8 3.9.2.2-.1-.2-.7-.8-1.4-.6-.8-.8-1.7-.4-2 .3-.4.3-.7 0-.7-.4 0-.8.3-.8.7zM203 125c0 .5.5 1 1 1 .6 0 1-.5 1-1 0-.6-.4-1-1-1-.5 0-1 .4-1 1zM84.5 126c-.3.6.1.7.9.4 1.8-.7 2.1-1.4.7-1.4-.6 0-1.3.4-1.6 1zM115.7 126.1c.7.7 1.5 1 1.8.7.3-.3-.2-.9-1.2-1.2-1.4-.6-1.5-.5-.6.5zM155.1 126.6c0 1.1.3 1.4.6.6.3-.7.2-1.6-.1-1.9-.3-.4-.6.2-.5 1.3zM177 126c0 .5.5 1 1.1 1 .5 0 .7-.5.4-1-.3-.6-.8-1-1.1-1-.2 0-.4.4-.4 1zM187 126.5c2.4 3.2 4 4.7 4 3.7 0-.4-1.2-1.9-2.7-3.3-2-1.8-2.3-1.9-1.3-.4zM54.8 126.7c.7.3 1.6.2 1.9-.1.4-.3-.2-.6-1.3-.5-1.1 0-1.4.3-.6.6zM129 126.4c0 .3.9 1 2 1.6 1.1.6 2 .8 2 .6 0-.3-.9-1-2-1.6-1.1-.6-2-.8-2-.6zM233.5 126.9c-.3.6.5 1.5 1.7 2.1 2.1 1 2.1 1 .6-.3-1-.8-1.5-1.7-1.1-2 .3-.4.4-.7 0-.7-.3 0-.8.4-1.2.9zM69 128c0 .5.5 1 1.1 1 .5 0 .7-.5.4-1-.3-.6-.8-1-1.1-1-.2 0-.4.4-.4 1zM170 128c-.9.6-1 1-.3 1 .6 0 1.5-.5 1.8-1 .8-1.2.4-1.2-1.5 0zM201.5 128.1c-.2.3.1.6.8.6.7 0 2.1.4 3.2.8 1.4.5 1.6.4.6-.3-1.1-.8-1.1-1 0-1.5.8-.3.1-.5-1.4-.4-1.6.1-3 .4-3.2.8zM214.9 127.2c-.4 1.5-.6 3.8-.3 3.8.2 0 .8-.9 1.4-2 .7-1.4.7-2 0-2-.5 0-1 .1-1.1.2zM238 128c0 .5.7.7 1.5.4.8-.4 1.5-.8 1.5-1 0-.2-.7-.4-1.5-.4s-1.5.4-1.5 1zM59.7 129.5c.3.8.9 1.2 1.4.9 1.2-.7 1.1-1.1-.5-1.7-1-.4-1.3-.1-.9.8zM127.5 129c.3.5.8 1 1.1 1 .2 0 .4-.5.4-1 0-.6-.5-1-1.1-1-.5 0-.7.4-.4 1zM138.5 129c-.3.5-.2 1 .4 1 .5 0 1.3-.5 1.6-1 .3-.6.2-1-.4-1-.5 0-1.3.4-1.6 1zM176.5 129c-.3.6.1.7.9.4 1.8-.7 2.1-1.4.7-1.4-.6 0-1.3.4-1.6 1zM227 128.4c0 .2.7.9 1.5 1.6.9.7 1.5.8 1.5.2 0-.5-.7-1.2-1.5-1.6-.8-.3-1.5-.4-1.5-.2zM37.1 130c-1 .5-.9.8.2 1.3.7.3 1.9.2 2.6-.3 1-.5.9-.8-.2-1.3-.7-.3-1.9-.2-2.6.3zM101.3 130.9c0 1.1.5 1.8.9 1.5.4-.3.5-1.1.1-1.9-.7-2.1-1.2-1.9-1 .4zM231 129.9c0 .5.7 1.2 1.6 1.5 1.4.5 1.5.4.4-.9-1.4-1.7-2-1.9-2-.6zM107.9 131.7c-.7 1-.9 1.5-.5 1.1.5-.4 1.5-.3 2.3.3.9.9 1.3.8 1.3 0 0-.6-.6-1.1-1.2-1.1-.9 0-.8-.4.2-1 .8-.5 1-1 .4-1s-1.8.8-2.5 1.7zM199 131c-.9.6-1 1-.3 1 .6 0 1.5-.5 1.8-1 .8-1.2.4-1.2-1.5 0zM258.6 131.4c.3.8 1.2 1.7 2 2 1.1.4 1.2.2.1-1.4-1.4-2.3-2.9-2.7-2.1-.6zM92 132c-.9.6-1 1-.3 1 .6 0 1.5-.5 1.8-1 .8-1.2.4-1.2-1.5 0zM122 131.9c0 .6.4 1.3 1 1.6.6.3.7-.1.4-.9-.7-1.8-1.4-2.1-1.4-.7zM132 131.9c0 1 3 2.4 3.7 1.7.3-.2-.5-.9-1.6-1.6-1.2-.6-2.1-.7-2.1-.1zM141.6 132.6c-.5 1.4-.4 1.5.9.4 1.7-1.4 1.9-2 .6-2-.5 0-1.2.7-1.5 1.6zM155.9 132.2c-1.2.8-1.2.9.1.5.8-.2 2.3.2 3.3 1.1.9.8 1.7 1.1 1.7.6 0-1.7-3.6-3.3-5.1-2.2zM211.7 132.1c.7.7 1.5 1 1.8.7.3-.3-.2-.9-1.2-1.2-1.4-.6-1.5-.5-.6.5zM164 133.1c0 .5.5.7 1 .4.6-.3 1-.8 1-1.1 0-.2-.4-.4-1-.4-.5 0-1 .5-1 1.1zM184.6 132.8c-.2.4.6.8 1.9.8 1.3 0 2.1-.4 1.9-.8-.3-.4-1.1-.8-1.9-.8-.8 0-1.6.4-1.9.8zM190.6 134.3c.2 1.1.6 2.2 1 2.6.4.3.5-.1.1-1-.3-.9-.1-2.1.4-2.6.6-.6.4-1-.5-1s-1.3.8-1 2zM229.5 132.9c-.3.5-.2 1.2.3 1.5.5.3.9-.1.9-.9 0-1.7-.3-1.9-1.2-.6zM266 133c0 .5.5 1 1.1 1 .5 0 .7-.5.4-1-.3-.6-.8-1-1.1-1-.2 0-.4.4-.4 1zM62.8 133.7c.7.3 1.6.2 1.9-.1.4-.3-.2-.6-1.3-.5-1.1 0-1.4.3-.6.6zM81.5 134c.3.5.8 1 1.1 1 .2 0 .4-.5.4-1 0-.6-.5-1-1.1-1-.5 0-.7.4-.4 1zM127 134.6c0 .8.5 1.2 1 .9.6-.4.8-1.1.5-1.6-.9-1.4-1.5-1.1-1.5.7zM145.3 134.5c-.3.9-.3 1.8-.1 2.1.3.3.8-.4 1.1-1.6.6-2.3-.1-2.7-1-.5zM232.1 133.3c.2.1 1.3.9 2.4 1.7 1.9 1.4 1.9 1.4.6-.3-.7-.9-1.8-1.7-2.4-1.7-.6 0-.8.1-.6.3zM87 134.9c0 .7-.5.9-1.2.5-.7-.5-.8-.3-.3.5.5.9 1 1 1.8.2.6-.6.8-1.4.4-1.8-.4-.3-.7-.1-.7.6zM105.4 134.7c1 1.1 3.7 1.2 3 .2-.3-.5-1.2-.9-2.1-.9-.9 0-1.3.3-.9.7zM130.6 134.8c-.3.5.1.9.9.9s1.2-.4.9-.9c-.3-.4-.7-.8-.9-.8-.2 0-.6.4-.9.8zM150.5 135c-.3.5-.1 1 .4 1 .6 0 1.1-.5 1.1-1 0-.6-.2-1-.4-1-.3 0-.8.4-1.1 1zM244 135c-1.2.7-1 .9.7.7 1.2 0 1.9-.5 1.7-.9-.6-1-.6-1-2.4.2zM274 134.4c0 .2.7.7 1.6 1 .8.3 1.2.2.9-.4-.6-1-2.5-1.4-2.5-.6zM279.3 135.5c0 .8.4 1.2.9.9.5-.3.6-1 .3-1.5-.9-1.3-1.2-1.1-1.2.6zM76.1 136.6c0 1.1.3 1.4.6.6.3-.7.2-1.6-.1-1.9-.3-.4-.6.2-.5 1.3zM168.6 136.5c-.9 2.6-.7 3.2.5 1.2.6-1 .9-2.1.6-2.3-.2-.3-.7.2-1.1 1.1zM181.3 137c.1 1.1.5 2 1 2s.7-.6.4-1.4c-.4-.9.1-1.7 1.1-1.9 1.2-.3 1.1-.5-.5-.6-1.6-.1-2.1.4-2 1.9zM288.5 136c-.3.6.1.7.9.4 1.8-.7 2.1-1.4.7-1.4-.6 0-1.3.4-1.6 1zM55.2 138.4c.1 1.4.5 2.3.9 2 .7-.4 0-4.4-.7-4.4-.2 0-.3 1.1-.2 2.4zM72.8 136.7c.7.3 1.6.2 1.9-.1.4-.3-.2-.6-1.3-.5-1.1 0-1.4.3-.6.6zM96.2 138c0 1.4.2 1.9.5 1.2.2-.6.2-1.8 0-2.5-.3-.6-.5-.1-.5 1.3zM225.3 137.9c0 1.1.5 1.8.9 1.5.4-.3.5-1.1.1-1.9-.7-2.1-1.2-1.9-1 .4zM59 137.4c0 .2.8 1 1.8 1.7 1.5 1.3 1.6 1.2.3-.4s-2.1-2.1-2.1-1.3zM90.5 138.1c-.6.8-.4 1 .5.4 1-.6 1.2-.4.6 1.1s-.5 1.7.5.6c.9-.9 1-1.5.2-2.3-.8-.8-1.3-.7-1.8.2zM171.1 137.5c0 .5.6 1.8 1.3 2.8 1.2 1.6 1.4 1.6 2 .2.3-.9.2-1.3-.3-1-.6.3-1.4-.3-2-1.2-.6-1-1-1.4-1-.8zM207.6 138.2c.3.5 1 .6 1.5.3 1.3-.9 1.1-1.2-.6-1.2-.8 0-1.2.4-.9.9zM107 139c0 .5.5 1 1.1 1 .5 0 .7-.5.4-1-.3-.6-.8-1-1.1-1-.2 0-.4.4-.4 1zM130.6 138.8c-.3.5.1.9.9.9s1.2-.4.9-.9c-.3-.4-.7-.8-.9-.8-.2 0-.6.4-.9.8zM149 139.5c-.7.9-1 1.8-.7 2.1.3.3 1-.4 1.7-1.5 1.3-2.5.8-2.7-1-.6zM178.5 141c-.1 1.6.3 2.6.7 2.4.5-.3.6-.9.3-1.4-.3-.4 0-1 .6-1.2.8-.3.7-.7-.2-1.5-1.1-.9-1.4-.6-1.4 1.7zM201.6 138.9c-.3.4.4.7 1.4.6 2.7-.2 3.3-1 1-1.2-1.1-.1-2.2.2-2.4.6zM75.5 140c.3.5.8 1 1.1 1 .2 0 .4-.5.4-1 0-.6-.5-1-1.1-1-.5 0-.7.4-.4 1zM103 139.4c0 .2.8 1 1.8 1.7 1.5 1.3 1.6 1.2.3-.4s-2.1-2.1-2.1-1.3zM113.6 140.3c.3 1 .9 1.5 1.2 1.2.3-.3 0-1.1-.7-1.8-1-.9-1.1-.8-.5.6zM244 139.9c0 .6.4 1.3 1 1.6.6.3.7-.1.4-.9-.7-1.8-1.4-2.1-1.4-.7zM271.6 140.7c-.6 1.4-.5 1.5.5.6.7-.7 1-1.5.7-1.8-.3-.3-.9.2-1.2 1.2zM124.5 141.1c-.4.6-.5 1.2-.2 1.5.2.3.7-.2 1-1.1.7-1.7.1-2-.8-.4zM160.6 141.6c-.8 2.2-.8 2.4.8 2.4 2.1 0 2.8-1.6 1.2-2.9-1.1-.9-1.5-.8-2 .5zM197.5 141c.3.5.8 1 1.1 1 .2 0 .4-.5.4-1 0-.6-.5-1-1.1-1-.5 0-.7.4-.4 1zM95.4 142.2c-.4.6-.3.8.3.5 1.3-.8 3.6 1.7 2.5 2.8-.4.5-.1.5.6.1 1.1-.6 1-1.2-.4-2.7-2-2.2-2.1-2.2-3-.7zM111.4 141.9c.4.5 0 1.2-.6 1.4-.7.3-.3.6.9.6 1.6.1 2.1-.3 1.7-1.4-.4-.8-1-1.5-1.6-1.5-.5 0-.7.4-.4.9zM140.6 141.9c-.3.4.8.8 2.3.7 1.6-.1 2.7-.4 2.4-.9-.6-1-4.1-.9-4.7.2zM183 141.9c0 .6.4 1.3 1 1.6.6.3.7-.1.4-.9-.7-1.8-1.4-2.1-1.4-.7zM200 141.9c0 .6.4 1.3 1 1.6.6.3.7-.1.4-.9-.7-1.8-1.4-2.1-1.4-.7zM225.7 142.1c.7.7 1.5 1 1.8.7.3-.3-.2-.9-1.2-1.2-1.4-.6-1.5-.5-.6.5zM284 143c-.9 1.6-.8 1.8.5 1.4.8-.4 1.5-1.2 1.5-2 0-2-.7-1.7-2 .6zM296.7 142.1c.7.7 1.5 1 1.8.7.3-.3-.2-.9-1.2-1.2-1.4-.6-1.5-.5-.6.5zM64.5 143c-.3.5-.1 1 .4 1 .6 0 1.1-.5 1.1-1 0-.6-.2-1-.4-1-.3 0-.8.4-1.1 1zM135 143.1c0 .5.5.7 1 .4.6-.3 1-.8 1-1.1 0-.2-.4-.4-1-.4-.5 0-1 .5-1 1.1zM152.6 142.9c-.3.5.2 1.5 1.2 2.2 1.5 1.2 1.6 1.2.5-.2-.7-.9-1-1.9-.6-2.2.3-.4.4-.7 0-.7-.3 0-.8.4-1.1.9zM210 144.2c-2.9 4.6-2 6.5 2 4.1 1.4-.8 1.7-1.2.7-.9-2.7.9-4-.3-2.2-2 .8-.9 2-1.2 2.7-.8.9.6.9.3-.1-.9-1.7-2.1-1.3-2.1-3.1.5zM5.5 144c-.3.6.1.7.9.4 1.8-.7 2.1-1.4.7-1.4-.6 0-1.3.4-1.6 1zM67.6 144.7c-.6 1.4-.5 1.5.5.6.7-.7 1-1.5.7-1.8-.3-.3-.9.2-1.2 1.2zM131.8 143.7c.7.3 1.6.2 1.9-.1.4-.3-.2-.6-1.3-.5-1.1 0-1.4.3-.6.6zM167.9 143.2c-.5 1.8-.6 3.8-.1 3.4.7-.8 1.2-3.6.6-3.6-.2 0-.4.1-.5.2zM242.1 144.6c0 1.1.3 1.4.6.6.3-.7.2-1.6-.1-1.9-.3-.4-.6.2-.5 1.3zM46.1 145.3c-.8 1-.7 1.4.2 1.4.8 0 1.4-.6 1.4-1.4 0-.7-.1-1.3-.2-1.3-.2 0-.8.6-1.4 1.3zM90.5 145c-.3.5.1 1 1 1s1.3-.5 1-1c-.3-.6-.8-1-1-1-.2 0-.7.4-1 1zM142.4 145.2c-.3.5-.3 1.2 0 1.5.3.4.6 0 .6-.8 0-1 .2-1.1.8-.2.4.7 1.3.9 2.1.4.9-.6.7-1-.8-1.4-1.2-.3-2.4-.1-2.7.5zM188 145c0 .5 1 1 2.3 1 1.8 0 1.9-.2.7-1-1.9-1.3-3-1.3-3 0zM119.9 145.2c-.7 2.3-.4 3.5.7 3.5.9 0 1.1-.4.4-1.2-.5-.7-.7-1.5-.3-1.8.3-.4.3-.7 0-.7-.4 0-.7.1-.8.2zM123.1 146.7c.6.7 1.7 1.3 2.3 1.2.7 0 .6-.2-.2-.6-.6-.2-1-.8-.8-1.2.3-.4-.1-.8-.9-.8-1.1 0-1.2.4-.4 1.4zM172 145.4c0 .2.7.7 1.6 1 .8.3 1.2.2.9-.4-.6-1-2.5-1.4-2.5-.6zM193.5 146c.3.5.8 1 1.1 1 .2 0 .4-.5.4-1 0-.6-.5-1-1.1-1-.5 0-.7.4-.4 1zM201.2 147.2c.2 1.5.7 3 1.1 3.4.3.3.4-.6.1-2.2-.7-3.7-1.6-4.7-1.2-1.2zM228 148.1c0 1.1.4 1.8 1 1.4.5-.3.7-1.2.3-2-.7-2.1-1.3-1.9-1.3.6zM93.1 148.7c.7 1.2 1.5 2 1.8 1.7.3-.2-.3-1.2-1.3-2.2-1.7-1.6-1.8-1.6-.5.5zM96 148.6c0 .8.5 1.2 1 .9.6-.4.8-1.1.5-1.6-.9-1.4-1.5-1.1-1.5.7zM186 148.1c0 .5.5.7 1 .4.6-.3 1-.8 1-1.1 0-.2-.4-.4-1-.4-.5 0-1 .5-1 1.1zM196.5 148c.3.5 1.2.7 2 .3 2.1-.7 1.9-1.3-.6-1.3-1.1 0-1.8.4-1.4 1zM204 148.1c0 .5.5.7 1 .4.6-.3 1-.8 1-1.1 0-.2-.4-.4-1-.4-.5 0-1 .5-1 1.1zM56.8 148.7c.7.3 1.6.2 1.9-.1.4-.3-.2-.6-1.3-.5-1.1 0-1.4.3-.6.6zM105.3 150c.1 2.1 1 1.8 1.3-.5.1-.8-.2-1.5-.6-1.5-.5 0-.8.9-.7 2zM165.1 149.6c0 1.1.3 1.4.6.6.3-.7.2-1.6-.1-1.9-.3-.4-.6.2-.5 1.3zM167 148.5c0 .7 3 1.3 3.4.7.3-.4-.4-.9-1.5-.9-1-.1-1.9 0-1.9.2zM245.6 149.3c.3 1 .9 1.5 1.2 1.2.3-.3 0-1.1-.7-1.8-1-.9-1.1-.8-.5.6zM17 150c0 .5.7.7 1.5.4.8-.4 1.5-.8 1.5-1 0-.2-.7-.4-1.5-.4s-1.5.4-1.5 1zM82.6 150.2c.3.5 1 .6 1.5.3 1.3-.9 1.1-1.2-.6-1.2-.8 0-1.2.4-.9.9zM148.4 149.8c.3.5 0 1.3-.6 1.5-.9.4-1 .6-.1.6 1.7.1 2.5-1.6 1.2-2.5-.7-.4-.9-.3-.5.4zM194.5 149.9c-.3.5-.2 1.2.3 1.5.5.3.9-.1.9-.9 0-1.7-.3-1.9-1.2-.6zM60 151c-.9.6-1 1-.3 1 .6 0 1.5-.5 1.8-1 .8-1.2.4-1.2-1.5 0zM131 150.4c0 .2.7.9 1.5 1.6.9.7 1.5.8 1.5.2 0-.5-.7-1.2-1.5-1.6-.8-.3-1.5-.4-1.5-.2zM161 150.9c0 .6.4 1.3 1 1.6.6.3.7-.1.4-.9-.7-1.8-1.4-2.1-1.4-.7zM205.8 150.7c.7.3 1.6.2 1.9-.1.4-.3-.2-.6-1.3-.5-1.1 0-1.4.3-.6.6zM14.5 152c-1 1.5 2.5 2.4 3.8 1 1-1 .7-1.1-1.2-.5-1.6.5-2.1.4-1.7-.4.4-.6.5-1.1.2-1.1s-.8.5-1.1 1zM44.2 154c0 1.4.2 1.9.5 1.2.2-.6.2-1.8 0-2.5-.3-.6-.5-.1-.5 1.3zM128 153.3c0 1.6 2.4 1.7 3.7.1.4-.5.4-.6-.1-.2-.5.4-1.5.3-2.3-.3-1-.9-1.3-.8-1.3.4zM134.7 153.9c-.3 1.3 0 1.8.7 1.5.7-.3 1.3-1.1 1.3-1.9 0-2.2-1.4-1.8-2 .4zM188.3 153.5c0 .8.4 1.2.9.9.4-.3.8-.9.8-1.5 0-.5-.4-.9-.8-.9-.5 0-.9.7-.9 1.5zM243 153c0 .5.5 1 1.1 1 .5 0 .7-.5.4-1-.3-.6-.8-1-1.1-1-.2 0-.4.4-.4 1zM124.5 155c1 1.1 2 2 2.3 2 .3 0-.3-.9-1.3-2s-2-2-2.3-2c-.3 0 .3.9 1.3 2zM206 154c-1.8 1.2-.2 1.2 2.5 0 1.3-.6 1.5-.9.5-.9-.8 0-2.2.4-3 .9zM225.8 153.6c.6.3 1.2 1.2 1.2 2s.4 1.4.9 1.4c1.8 0 .4-3.5-1.5-3.7-1-.2-1.3 0-.6.3zM230.6 154.6c-.5 1.4-.4 1.5.9.4 1.7-1.4 1.9-2 .6-2-.5 0-1.2.7-1.5 1.6zM258 154c0 .5.5 1 1.1 1 .5 0 .7-.5.4-1-.3-.6-.8-1-1.1-1-.2 0-.4.4-.4 1zM110 154.9c0 1 1.9 2.5 2.5 2 .1-.2-.3-1-1.1-1.7s-1.4-.8-1.4-.3zM151 155.1c0 .5.4.8.9.5.5-.4 1.1 0 1.4.6.3 1 .8 1 1.8-.1.8-.8.9-1.1.2-.7-.6.3-1.4.2-1.8-.4-.8-1.3-2.5-1.3-2.5.1zM157.1 154.6c-.1.6.5 1.7 1.3 2.3 1 .9 1.6.8 2.6-.4 1.6-1.9.5-3.2-1.4-1.6-1.1.9-1.5.9-1.9-.1-.3-.8-.6-.8-.6-.2zM174 154.4c0 .2.6.9 1.4 1.5 1 .9 1.5.8 1.9-.2.3-.8-.3-1.3-1.4-1.4-1-.1-1.9 0-1.9.1zM201 154.9c0 .6.4 1.3 1 1.6.6.3.7-.1.4-.9-.7-1.8-1.4-2.1-1.4-.7zM212.5 155c-.3.6.1.7.9.4 1.8-.7 2.1-1.4.7-1.4-.6 0-1.3.4-1.6 1zM235 156c.6 1.1 1.3 2 1.6 2 .2 0 0-.9-.6-2s-1.3-2-1.6-2c-.2 0 0 .9.6 2zM120.3 156.5c0 .8.4 1.2.9.9.5-.3.6-1 .3-1.5-.9-1.3-1.2-1.1-1.2.6zM167 155.4c0 .2.7.7 1.6 1 .8.3 1.2.2.9-.4-.6-1-2.5-1.4-2.5-.6zM190.5 156.1c-.4.6-.4 1.3-.1 1.6.3.4.6.1.6-.6s.5-.9 1.2-.5.8.3.4-.4c-.9-1.5-1.3-1.5-2.1-.1zM131 158c.9 1.8 5.5 1.7 6.5-.1.3-.4-.9-.4-2.6.1-2.4.7-3 .6-2.6-.4.3-.7-.1-1.3-.8-1.3-1 0-1.1.5-.5 1.7zM140.5 157c-.3.5-.5 1-.3 1.1 2.9.7 3.6.5 3.1-.7-.6-1.6-1.9-1.8-2.8-.4zM163 157.2c0 .6.6.8 1.3.5 1.4-.5 3.9 1.7 3 2.7-.4.3-.2.6.4.6.6 0 1.4-.8 1.7-1.7.4-1 .4-1.4 0-1-.4.4-1.4.1-2.2-.5-1.8-1.6-4.2-1.9-4.2-.6zM204.6 157.5c-.2.7.5 1.1 2 1.1 1.3-.1 2.3-.6 2.2-1.1-.4-1.3-3.6-1.3-4.2 0zM238.3 157.5c0 .8.4 1.2.9.9.5-.3.6-1 .3-1.5-.9-1.3-1.2-1.1-1.2.6zM242 156.9c0 .6.4 1.3 1 1.6.6.3.7-.1.4-.9-.7-1.8-1.4-2.1-1.4-.7zM283 157c-.9.6-1 1-.3 1 .6 0 1.5-.5 1.8-1 .8-1.2.4-1.2-1.5 0zM95.5 157.7c.3.3 0 1.1-.5 1.8-.7.8-.5 1.2.4 1.2 1.4 0 1.6-2.2.3-3.2-.4-.3-.5-.2-.2.2zM178 158c0 .5.5 1.2 1 1.5.6.3 1 .1 1-.5s.6-.8 1.3-.4c.6.4.8.3.4-.1-1-1.2-3.7-1.5-3.7-.5zM210.7 158.9c-.3 1.2 0 2.4.5 2.8.6.3.8.1.4-.5-.3-.5-.2-1.2.4-1.4.5-.2.6-.9.1-1.6-.6-1-1-.9-1.4.7zM230 158.1c0 .5-.4.8-.9.4-.5-.3-1.2-.2-1.5.3-.2.4.4.9 1.5.9 1 .1 1.9-.5 1.9-1.3s-.2-1.4-.5-1.4-.5.5-.5 1.1zM50.6 158.8c-.3.5.1.9.9.9s1.2-.4.9-.9c-.3-.4-.7-.8-.9-.8-.2 0-.6.4-.9.8zM116.3 159.5c0 .7.6 1.1 1.4.8.7-.3 1.3-.6 1.3-.8 0-.2-.6-.5-1.3-.8-.8-.3-1.4.1-1.4.8zM126 158.4c0 .2.7.7 1.6 1 .8.3 1.2.2.9-.4-.6-1-2.5-1.4-2.5-.6zM174.1 159.6c0 1.1.3 1.4.6.6.3-.7.2-1.6-.1-1.9-.3-.4-.6.2-.5 1.3zM195.5 159c-1.6.7-1.7.9-.3.9.9.1 2-.4 2.3-.9.7-1.1.7-1.1-2 0zM253.3 159.5c-.3.9-.3 1.8-.1 2.1.3.3.8-.4 1.1-1.6.6-2.3-.1-2.7-1-.5zM67 160c-.9.6-1 1-.3 1 .6 0 1.5-.5 1.8-1 .8-1.2.4-1.2-1.5 0zM81.7 160.7c.3.7.6 1.3.8 1.3.2 0 .5-.6.8-1.3.3-.8-.1-1.4-.8-1.4-.7 0-1.1.6-.8 1.4zM190 160.5c-.6.8-1 1.9-.8 2.4.1.6.8-.1 1.5-1.4 1.3-2.8 1.1-3.1-.7-1zM77 161c0 .5.5 1 1.1 1 .5 0 .7-.5.4-1-.3-.6-.8-1-1.1-1-.2 0-.4.4-.4 1zM153.6 161.5c-1.3 1-2.4 1.1-3.7.4-1.3-.6-1.9-.6-1.9.1 0 .5.7 1 1.6 1 .8 0 1.3.4 1 .9-.3.5.1 1.2 1 1.5.9.3 1.2.2.9-.5-.9-1.3 2.6-4 4.3-3.4.7.3 1 0 .7-.5-.8-1.3-1.6-1.2-3.9.5zM170 161.1c0 .5.5.7 1 .4.6-.3 1-.8 1-1.1 0-.2-.4-.4-1-.4-.5 0-1 .5-1 1.1zM185.5 160.9c-.3.5 0 1.3.6 1.7.7.4.9.3.5-.4-.3-.5 0-1.3.6-1.5.9-.4 1-.6.1-.6-.6-.1-1.4.3-1.8.8zM239.6 161.6c-.8 2-.8 2.4.2 2.4.4 0 .8-.9.9-2 .2-2.4-.3-2.6-1.1-.4zM55.5 162.1c-.4.6-.5 1.2-.2 1.5.2.3.7-.2 1-1.1.7-1.7.1-2-.8-.4zM62 162c0 .5.5 1 1.1 1 .5 0 .7-.5.4-1-.3-.6-.8-1-1.1-1-.2 0-.4.4-.4 1zM138.5 162c-.3.5.1 1 1 1s1.3-.5 1-1c-.3-.6-.8-1-1-1-.2 0-.7.4-1 1zM36.9 163.7c-1.3 1.6-1.2 1.7.4.4.9-.7 1.7-1.5 1.7-1.7 0-.8-.8-.3-2.1 1.3zM134.6 162.9c-.4.5-.2 1.2.3 1.5.5.4 1.2.2 1.5-.3.4-.5.2-1.2-.3-1.5-.5-.4-1.2-.2-1.5.3zM45.7 164.1c.7.7 1.5 1 1.8.7.3-.3-.2-.9-1.2-1.2-1.4-.6-1.5-.5-.6.5zM72.2 164.7c.6.7 1.4 1.3 1.8 1.3.3 0 .7-.6.7-1.3 0-.7-.8-1.3-1.8-1.3-1.3 0-1.5.3-.7 1.3zM97.2 164.7c.9 1 1.8 2.5 2.1 3.3.4 1 .6 1.1.6.2.1-2-1.8-5.2-3.1-5.2-.7 0-.5.7.4 1.7zM116 165.2c-1.6 1.4-1.9 1.9-.7 1.5.9-.4 1.7-.2 1.7.3s.7.7 1.5.4c1.1-.5 1.3-1 .5-1.9-.5-.6-.7-1.5-.3-1.8 1.5-1.6-.4-.5-2.7 1.5zM172.5 164.4c.3 1.1 0 2.3-.7 2.8-.9.5-1 .8-.1.8 1.9 0 2.5-1.8 1.3-3.7-1.1-1.7-1.1-1.6-.5.1zM211.8 163.7c.7.3 1.6.2 1.9-.1.4-.3-.2-.6-1.3-.5-1.1 0-1.4.3-.6.6zM216.6 163.9c-.4.5.3.7 1.4.4 2.3-.6 2.6-1.3.6-1.3-.8 0-1.7.4-2 .9zM296.6 164.5c.4.8.8 1.5 1 1.5.2 0 .4-.7.4-1.5s-.4-1.5-1-1.5c-.5 0-.7.7-.4 1.5zM81.5 165c-.3.6.1.7.9.4 1.8-.7 2.1-1.4.7-1.4-.6 0-1.3.4-1.6 1zM137.3 165.5c-.3.9-.3 1.9.1 2.2.3.4.6-.1.6-1.1s.5-1.4 1.2-1c.7.4.8.3.4-.4-1-1.6-1.5-1.5-2.3.3zM163.5 165c-.3.5.1 1 1 1s1.3-.5 1-1c-.3-.6-.8-1-1-1-.2 0-.7.4-1 1zM258.9 164.2c-.5 1.8-.6 3.8-.1 3.4.7-.8 1.2-3.6.6-3.6-.2 0-.4.1-.5.2zM155.5 166c.6.9-.6 1.3-4.5 1.3-.9 0-2.2.7-2.9 1.5-1.2 1.2-1.1 1.3 1 .7 1.3-.3 3.2-.9 4.2-1.1.9-.3 1.7-.1 1.7.5s.7 1.1 1.6 1.1c1.3 0 1.4-.3.5-1.4-.9-1.1-.9-1.5.1-1.8.8-.3.6-.7-.6-1.1-1-.4-1.5-.3-1.1.3zM189 165.4c0 .2.7.7 1.6 1 .8.3 1.2.2.9-.4-.6-1-2.5-1.4-2.5-.6zM222.2 165.9c-1.1.7-1.1.9 0 1.4.9.3 1.5-.1 1.5-.9s-.1-1.4-.1-1.4c-.1 0-.7.4-1.4.9zM93.3 167.7c0 .8.6.9 1.9.2 1-.5 1.8-1.1 1.8-1.2 0-.2-.8-.3-1.8-.3s-1.9.6-1.9 1.3zM232 166.4c0 .2.7.9 1.5 1.6 1.3 1.1 1.4 1 .9-.4-.5-1.4-2.4-2.3-2.4-1.2zM56.3 168.7c0 .9.4 1 1.4.2.7-.6 1.3-1.2 1.3-1.4 0-.1-.6-.2-1.3-.2-.8 0-1.4.6-1.4 1.4zM69.7 169c.5 1.7.6 1.7 2.4.2 2.4-2 2.4-2-.5-2-1.8 0-2.2.5-1.9 1.8zM128.6 167.8c-.3.5.1.9.9.9s1.2-.4.9-.9c-.3-.4-.7-.8-.9-.8-.2 0-.6.4-.9.8zM143.8 167.7c.7.3 1.6.2 1.9-.1.4-.3-.2-.6-1.3-.5-1.1 0-1.4.3-.6.6zM89.1 169.6c0 1.1.3 1.4.6.6.3-.7.2-1.6-.1-1.9-.3-.4-.6.2-.5 1.3zM198.6 169.7c-.6 1.4-.5 1.5.5.6.7-.7 1-1.5.7-1.8-.3-.3-.9.2-1.2 1.2zM212.7 169.4c-1 .8-1.4 1.6-1 1.9.5.3 1.4-.3 2.1-1.4 1.4-2.2 1.3-2.3-1.1-.5zM103.1 170c0 .8.6 2.4 1.4 3.4 1.9 2.5 1.9.9 0-2.4-.8-1.4-1.4-1.9-1.4-1zM136.5 170c.4.6 1.1.8 1.6.5 1.4-.9 1.1-1.5-.7-1.5-.8 0-1.2.5-.9 1zM168.8 169.7c.7.3 1.6.2 1.9-.1.4-.3-.2-.6-1.3-.5-1.1 0-1.4.3-.6.6zM186.3 170.5c0 .8.4 1.2.9.9.4-.3.8-.9.8-1.5 0-.5-.4-.9-.8-.9-.5 0-.9.7-.9 1.5zM160 170.8c0 .4 1.2.9 2.8 1 2.1.1 2.3 0 1.2-.8-1.8-1.2-4-1.3-4-.2zM219.3 171.4c.5 1.5 2.4 1.8 2.4.3 0-.8-.6-1.4-1.4-1.4-.7 0-1.2.5-1 1.1zM254.5 170.9c-.3.5-.2 1.2.3 1.5.5.3.9-.1.9-.9 0-1.7-.3-1.9-1.2-.6zM45 172c0 .5.7.7 1.5.4.8-.4 1.5-.8 1.5-1 0-.2-.7-.4-1.5-.4s-1.5.4-1.5 1zM117.5 172c-.4.6-.3 1.6.3 2.2.6.6 1.2.6 1.7-.2.4-.6.3-1.6-.3-2.2-.6-.6-1.2-.6-1.7.2zM132.6 171.8c-.3.5.1.9.9.9s1.2-.4.9-.9c-.3-.4-.7-.8-.9-.8-.2 0-.6.4-.9.8zM182.6 171.8c-.3.5.1.9.9.9s1.2-.4.9-.9c-.3-.4-.7-.8-.9-.8-.2 0-.6.4-.9.8zM202.2 171.5c.3.3 1.6.8 2.8 1 1.2.2 2 .1 1.6-.2-.4-.4-1.6-.8-2.8-1-1.2-.2-1.9-.1-1.6.2zM213.9 172.7c-1.3 1.6-1.2 1.7.4.4.9-.7 1.7-1.5 1.7-1.7 0-.8-.8-.3-2.1 1.3zM68.5 172.9c-.3.5-.2 1.2.3 1.5.5.3.9-.1.9-.9 0-1.7-.3-1.9-1.2-.6zM88 172.4c0 .2.7.9 1.5 1.6 1.3 1.1 1.4 1 .9-.4-.5-1.4-2.4-2.3-2.4-1.2zM170.5 173c-.3.5-.2 1.6.2 2.4.7 1.2 1 1.1 2.3-.2 1.3-1.4 1.2-1.5-.3-.9-.9.3-1.7.2-1.7-.2 0-.5.6-1.2 1.3-1.4.9-.4.9-.6 0-.6-.6-.1-1.5.3-1.8.9zM264 174.1c-.7 1.1-1 2.3-.7 2.5.2.2.9-.7 1.5-2.1 1.4-3 .7-3.3-.8-.4zM275.8 172.7c.7.3 1.6.2 1.9-.1.4-.3-.2-.6-1.3-.5-1.1 0-1.4.3-.6.6zM130.3 174.5c0 .8.4 1.2.9.9.5-.3.6-1 .3-1.5-.9-1.3-1.2-1.1-1.2.6zM167 174.5c0 .8.4 1.5 1 1.5.5 0 .7-.7.4-1.5-.4-.8-.8-1.5-1-1.5-.2 0-.4.7-.4 1.5zM175.5 174c.3.5.8 1 1.1 1 .2 0 .4-.5.4-1 0-.6-.5-1-1.1-1-.5 0-.7.4-.4 1zM197.1 174.6c0 1.1.3 1.4.6.6.3-.7.2-1.6-.1-1.9-.3-.4-.6.2-.5 1.3zM239.6 173.9c.8.8 5.3.7 4.8-.1-.3-.4-1.6-.7-2.9-.6-1.3.1-2.2.4-1.9.7zM123.6 174.8c-.3.5.1.9.9.9s1.2-.4.9-.9c-.3-.4-.7-.8-.9-.8-.2 0-.6.4-.9.8zM162.5 175c-.9 1.5.5 5.1 1.7 4.4.6-.4.6-1 0-1.6-.6-.6-.8-1.7-.5-2.4.6-1.6-.3-1.9-1.2-.4zM165.1 175.6c0 1.1.3 1.4.6.6.3-.7.2-1.6-.1-1.9-.3-.4-.6.2-.5 1.3zM188 175.1c0 .5.5.7 1 .4.6-.3 1-.8 1-1.1 0-.2-.4-.4-1-.4-.5 0-1 .5-1 1.1zM234.3 175.2c.1.7-.4 1.2-1.1 1-.8-.1-1.1.2-.7.8.5.8 1.1.8 2.1-.1.7-.6 1.1-1.5.8-2-.8-1.3-1.4-1.1-1.1.3zM34 176.6c0 .8-.4 1.3-.9.9-.5-.3-1.3 0-1.7.7-.4.7-.4 1 .1.6.4-.4 1.3-.4 1.9.2.8.6 1.2.1 1.4-1.6.1-1.3 0-2.4-.3-2.4s-.5.7-.5 1.6zM56.7 176.3c-.3.8.1 1.4.8 1.4.7 0 1.1-.6.8-1.4-.3-.7-.6-1.3-.8-1.3-.2 0-.5.6-.8 1.3zM72.5 176.1c-1.1 1.6-.1 1.9 1.3.3.7-.8.8-1.4.3-1.4s-1.3.5-1.6 1.1zM80 176.4c0 .9.5 1.6 1 1.6.6 0 1-.4 1-.9 0-.6-.4-1.3-1-1.6-.5-.3-1 .1-1 .9zM116 175.9c0 .6.4 1.3 1 1.6.6.3.7-.1.4-.9-.7-1.8-1.4-2.1-1.4-.7zM127.2 176.6c-.7.8-.8 1.4-.3 1.4 1 0 2.5-1.9 2-2.5-.2-.1-1 .3-1.7 1.1zM94.6 177.3c.3 1 .9 1.5 1.2 1.2.3-.3 0-1.1-.7-1.8-1-.9-1.1-.8-.5.6zM134.9 177.7c-1.3 1.6-1.2 1.7.4.4.9-.7 1.7-1.5 1.7-1.7 0-.8-.8-.3-2.1 1.3zM74 177.4c0 .2.7.7 1.6 1 .8.3 1.2.2.9-.4-.6-1-2.5-1.4-2.5-.6zM109 178c0 .5.5 1 1.1 1 .5 0 .7-.5.4-1-.3-.6-.8-1-1.1-1-.2 0-.4.4-.4 1zM145.4 177.8c.4.3 1.4.7 2.2.8.9.1 1.3 0 1-.4-.4-.3-1.4-.7-2.2-.8-.9-.1-1.3 0-1 .4zM166 178.4c0 .2.7.7 1.6 1 .8.3 1.2.2.9-.4-.6-1-2.5-1.4-2.5-.6zM155.3 180.1c-.9 1.1-.6 1.4 1.7 1.4 1.6.1 2.6-.3 2.4-.7-.3-.5-.9-.6-1.4-.3-.4.3-1 0-1.2-.6-.3-.8-.7-.7-1.5.2zM170.5 180c.3.5.8 1 1.1 1 .2 0 .4-.5.4-1 0-.6-.5-1-1.1-1-.5 0-.7.4-.4 1zM177.9 179.2c-.5 1.8-.6 3.8-.1 3.4.7-.8 1.2-3.6.6-3.6-.2 0-.4.1-.5.2zM204.5 180.3c-1.5 1.2-1.6 1.5-.4 2.2.8.5 1 .4.6 0-.4-.5.3-1.5 1.5-2.2 1.3-.7 1.8-1.2 1.2-1.3-.5 0-1.8.6-2.9 1.3zM73.4 182.2l-1.9 2.3 2.3-1.9c2.1-1.8 2.7-2.6 1.9-2.6-.2 0-1.2 1-2.3 2.2zM135 181c0 .5.5 1 1 1 .6 0 1 .7 1 1.7 0 .9.3 1.4.6 1 .8-.8-.5-4.7-1.7-4.7-.5 0-.9.4-.9 1zM240.6 180.9c-.3.5.1 1.1.9 1.4.9.4 1.2.1.8-.9-.6-1.6-1-1.7-1.7-.5zM41.6 181.8c.5.4 1.2 1.1 1.5 1.5.3.5.9.2 1.2-.5.3-.9-.3-1.4-1.5-1.5-1.1-.1-1.6.1-1.2.5zM78.3 181.6c.3.3.2 1.7-.3 3-.7 1.7-.6 2.2.3 1.8 1.5-.5 1.9-5.4.4-5.4-.6 0-.8.3-.4.6zM88.1 182.6c0 1.1.3 1.4.6.6.3-.7.2-1.6-.1-1.9-.3-.4-.6.2-.5 1.3zM130.6 182.2c.3.5 1 .6 1.5.3 1.3-.9 1.1-1.2-.6-1.2-.8 0-1.2.4-.9.9zM142.6 182.7c-.6 1.4-.5 1.5.5.6.7-.7 1-1.5.7-1.8-.3-.3-.9.2-1.2 1.2zM151.2 181.9c-1.1.7-1.1.9 0 1.4.9.3 1.5-.1 1.5-.9s-.1-1.4-.1-1.4c-.1 0-.7.4-1.4.9zM183.7 181.8c.8.5.9 1.3.3 2.2-.6.8-1 1.9-1 2.5 0 .5.5.3 1-.5.7-1.1 1-1.1 1-.2 0 .7.5 1 1 .7.8-.5.8-1.1.1-1.9-.8-.9-.7-1.3.4-1.3.8 0 1.5.4 1.5.9 0 .4.5.8 1 .8 2.2 0 .8-1.9-2.1-2.9-3.7-1.3-4.9-1.4-3.2-.3zM100 183c-.9.6-1 1-.3 1 .6 0 1.5-.5 1.8-1 .8-1.2.4-1.2-1.5 0zM123.5 183c.3.5.8 1 1.1 1 .2 0 .4-.5.4-1 0-.6-.5-1-1.1-1-.5 0-.7.4-.4 1zM213.8 182.7c.7.3 1.6.2 1.9-.1.4-.3-.2-.6-1.3-.5-1.1 0-1.4.3-.6.6zM252.9 183.7c-1.3 1.7-1.3 1.7.6.3 1.1-.8 2.2-1.6 2.4-1.7.2-.2 0-.3-.6-.3s-1.7.8-2.4 1.7zM174 186.1c3.5 3.1 5 3.8 3 1.4-.6-.8-.9-1.9-.5-2.5.6-1 .5-1.1-3.4-1.5-2.3-.2-2.2-.1.9 2.6zM180 184c-.9.6-1 1-.3 1 .6 0 1.5-.5 1.8-1 .8-1.2.4-1.2-1.5 0zM247.6 184.7c-.6 1.4-.5 1.5.5.6.7-.7 1-1.5.7-1.8-.3-.3-.9.2-1.2 1.2zM113.7 185.1c.7.7 1.5 1 1.8.7.3-.3-.2-.9-1.2-1.2-1.4-.6-1.5-.5-.6.5zM144.3 185.5c-.7.8-.9 1.6-.4 1.9.5.3 1.2-.1 1.5-1 .8-2.2.4-2.5-1.1-.9zM221.3 185.3c-.3.6-.1.7.5.3.5-.3 1.2-.1 1.4.6.3.8.6.7 1-.3.7-1.7-1.9-2.2-2.9-.6zM289.1 185.6c0 1.1.3 1.4.6.6.3-.7.2-1.6-.1-1.9-.3-.4-.6.2-.5 1.3zM31 186.1c0 .5.5.7 1 .4.6-.3 1-.8 1-1.1 0-.2-.4-.4-1-.4-.5 0-1 .5-1 1.1zM74.3 187c-.1 1.1.2 2 .8 2 .5 0 .9-.9.9-2s-.4-2-.8-2-.8.9-.9 2zM90.5 185.8c-1.4 1-1.8 4.2-.5 4.2.5 0 1-.9 1-1.9 0-1.1.6-2.2 1.3-2.4.6-.3.8-.6.2-.6-.5 0-1.4.3-2 .7zM147 185.5c0 .7 3 1.3 3.4.7.3-.4-.4-.9-1.5-.9-1-.1-1.9 0-1.9.2zM161 186.1c0 .5.5.7 1 .4.6-.3 1-.8 1-1.1 0-.2-.4-.4-1-.4-.5 0-1 .5-1 1.1zM191 185.4c0 .2.8 1 1.8 1.7 1.5 1.3 1.6 1.2.3-.4s-2.1-2.1-2.1-1.3zM199 187c-.6 1.1-.9 2-.8 2 .2 0 1.1-.9 2.1-2 .9-1.1 1.3-2 .7-2-.5 0-1.4.9-2 2zM71 187c0 .5.5 1 1.1 1 .5 0 .7-.5.4-1-.3-.6-.8-1-1.1-1-.2 0-.4.4-.4 1zM209.1 187.6c0 1.1.3 1.4.6.6.3-.7.2-1.6-.1-1.9-.3-.4-.6.2-.5 1.3zM103 188.8c.9 1.9 3 2.3 3 .5 0-.4-.3-.3-.7 0-.3.4-1.2-.1-2-1.1-1.3-1.5-1.3-1.5-.3.6zM156.6 188.7c-1.3.7-3.9 1.3-5.9 1.5-2 .1-3.9.8-4.2 1.6-.3.8-1.1 1.2-1.8.9-.8-.3-1.2.6-1.3 2.4-.1 1.6-.9 3.8-1.9 4.9-1.7 1.8-3.6 8.4-3.6 12.2 0 1-.4 1.8-.9 1.8s-.5 1.3 0 3 .9 3.3 1 3.6c.3 1.3-5.3 3.4-7.4 2.8-1.4-.3-2.8.1-3.6 1.1-1.2 1.4-1.5 1.4-3.3-.6-1.3-1.4-2.2-1.7-2.7-.9-.9 1.5-23.8 1.7-26.6.2-1.6-.9-2.1-.8-2.1.3 0 .7.7 1.1 1.5.7.9-.3 1.3-.1.9.5-.7 1-2.1 1.2-12.7 1.6-4.1.2-4.5.4-5 3.2-.5 2.9.1 9.9 1.5 16l.6 3-1.9-2.3c-1.1-1.2-2.6-2.2-3.3-2.2-.7 0-3.2-1.2-5.7-2.6-3.3-1.9-5.9-2.7-9.6-2.7-6.4 0-7.6-.4-6.9-2.5.3-1.1.2-1.3-.4-.6-1.9 2.5-13.3 2-13.3-.6 0-1.1-4.1-5-5.2-5-.5 0-.7.4-.4.8.3.5-.5.7-1.7.6-1.2-.1-3-.3-4-.3-1-.1-1.6-.5-1.3-1 .3-.4-.5-.6-1.7-.4-1.3.3-5.8-.9-10.1-2.6-4.2-1.7-8.2-2.8-8.8-2.5-.6.4-.8.2-.5-.3 1-1.5-1.8-2.4-3.2-1-2.6 2.6-1.1 4.5 5.4 6.8 3.5 1.2 6.2 2.6 5.9 3.1-.3.4.2.5 1 .2.9-.3 1.6-.1 1.6.6 0 .6.4.9.9.6.5-.3 2.5.1 4.5.9 6.8 2.9 24.1 6.6 30.6 6.6.8 0 8 2.1 15.9 4.7l14.3 4.7 2.2 4.5c1.8 3.8 2.6 4.5 5.1 4.5 8.4.1 13.7 3.7 16.1 10.8 1 2.8 1.8 5.9 1.9 6.7 0 .9.4 2.1.9 2.8.4.6.4 1.6.1 2.2-.3.5-.2 1 .3 1 1.5 0 4.2 8.2 4.2 12.6 0 2.3.3 6.2.6 8.8l.7 4.6h88.4l.7-7.7c1.3-15.4 4.9-29.1 8.5-32.1.8-.6 1.2-1.2.8-1.2-.4 0 0-1.1.8-2.4 1.7-2.6 14.9-9.6 18.1-9.6 2.9 0 4.2-1.2 4.9-4.5 1.4-6.4 2.7-9.5 3.9-9.5.7 0 5.4-2 10.6-4.5 6.8-3.4 10.7-4.6 14.4-4.8 2.8-.1 5.3-.5 5.6-.8.3-.4 2.1-.9 4-1.2 5-.7 15.5-4.6 22.1-8.2 1.4-.8 2.9-1.2 3.3-.8.3.3.6.2.6-.4 0-.5 2.3-2 5-3.3 2.8-1.3 5-2.9 5-3.6 0-1.7-2.3-3-2.8-1.6-.2.7-1.1 1.2-2.1 1.2-.9 0-2.6.7-3.8 1.5-2.6 1.8-14 5.5-14.8 4.7-.3-.3-.5.1-.5.9s-1 1.4-2.2 1.4c-1.3.1-3.4.5-4.7.9-1.8.6-2.2.5-1.6-.4.5-.9.4-1.1-.3-.6-.7.4-1.2 1.3-1.2 2 0 1.4-3 2.5-17 6.2-5.3 1.4-10.9 3.7-12.7 5-1.8 1.4-3.3 2.2-3.3 1.8 0-.4-.9.3-2 1.6l-2 2.4.6-8.5c.4-5 .2-9.5-.4-11.1-1.1-2.5-1.3-2.6-7.4-2.1-3.5.3-6.4 1-6.6 1.4-.2.5-.8.9-1.3.9-.6 0-.8-.3-.5-.8.2-.4-2.6-.7-6.2-.6-3.7.1-7.1-.1-7.6-.4-1.5-.8-11.8-.2-13.8.9-1.2.6-1.8.6-1.8-.1 0-1.7-2.8-1.1-4.9 1.2-1.7 1.8-2.3 1.9-3.6.8-.9-.8-1.3-2.1-1-3.4.6-2.1.6-2.1-.6-.1-.7 1.1-1.7 2.3-2.3 2.7-1.2.8-3.6-.9-3.6-2.4 0-.6.7-.5 1.5.2 2.3 1.9 3 .4 1.1-2.4-1.4-2.2-1.4-2.5-.1-2 1 .4 1.5 0 1.5-1 0-.9.5-1.6 1.1-1.6.6 0 .3-.7-.5-1.6-.9-.8-1.6-2.9-1.6-4.5 0-1.7-1-4.8-2.2-7-2-3.4-2.1-4.1-.8-5 1.3-.9 1.3-1-.1-.6-1 .3-3.1-.9-5.4-3.3-3.2-3.2-4.5-3.9-8.7-4.2-2.7-.1-5.9.2-7.2.9zm14.3 28.8l4.4 3-3.4.7c-4.7 1-24.2 1.4-25.6.5-1.3-.8 3.4-6.7 5.4-6.7.7 0 1.3-.5 1.3-1 0-.6 1.4-1 3-1 1.7 0 3 .4 3 1 0 .5.7.7 1.5.4.8-.4 1.2-1 1-1.5-.9-1.3 4.5 1.3 9.4 4.6zM217 187.7c.5.2.8.9.4 1.4-.3.5 0 .9.6.9 1.5 0 .7-2.3-.8-2.6-.7-.1-.8 0-.2.3zM246 188.5c0 .8.4 1.5 1 1.5.5 0 .7-.7.4-1.5-.4-.8-.8-1.5-1-1.5-.2 0-.4.7-.4 1.5zM92 188.9c0 .6.4 1.3 1 1.6.6.3.7-.1.4-.9-.7-1.8-1.4-2.1-1.4-.7z"/><path d="M179.5 189.1c-.4.6-.4 1.3-.1 1.6.3.4.6.1.6-.6s.5-.9 1-.6c.6.3 1 .1 1-.4 0-1.4-1.7-1.4-2.5 0zM261 189.5c-.7.9-1 1.8-.6 2.2.3.3.6 0 .7-.8 0-.8.4-.6.9.6.8 1.8.9 1.7.9-.8.1-3.1-.2-3.3-1.9-1.2zM117 190.1c0 .5.5.7 1 .4.6-.3 1-.8 1-1.1 0-.2-.4-.4-1-.4-.5 0-1 .5-1 1.1zM111.3 190.7c.4.3.1 1.3-.6 2.2-1.1 1.4-1 1.4.5.2 1.6-1.2 1.6-3.1.1-3.1-.4 0-.3.3 0 .7zM121.4 190.7c.4.4 1.6.8 2.8 1 2.8.4 1.8-.6-1.2-1.2-1.2-.2-2-.1-1.6.2zM201.5 191c-.3.5-.1 1 .4 1 .6 0 1.1-.5 1.1-1 0-.6-.2-1-.4-1-.3 0-.8.4-1.1 1zM222.5 190.9c-.3.5-.1 1.2.5 1.6.5.3 1-.1 1-.9 0-1.8-.6-2.1-1.5-.7zM91 192.1c0 .5-.4.7-1 .4-1.4-.9-1.2.1.3 1.3 1 .8 1.3.6 1.4-.9.1-1 0-1.9-.3-1.9-.2 0-.4.5-.4 1.1zM127.6 191.8c-.3.5.4 1.8 1.6 2.8 2.1 1.9 2.1 1.9.8-.6-1.7-3.3-1.7-3.3-2.4-2.2zM190.8 191.7c.7.3 1.6.2 1.9-.1.4-.3-.2-.6-1.3-.5-1.1 0-1.4.3-.6.6zM233.5 191.9c-.3.5-.2 1.2.3 1.5.5.3.9-.1.9-.9 0-1.7-.3-1.9-1.2-.6zM115 193c0 .6.7 1 1.5 1s1.5-.2 1.5-.4-.7-.6-1.5-1c-.8-.3-1.5-.1-1.5.4zM181.5 193c-.3.5-.1 1 .4 1 .6 0 1.1-.5 1.1-1 0-.6-.2-1-.4-1-.3 0-.8.4-1.1 1zM218 192.4c0 .2.8 1 1.8 1.7 1.5 1.3 1.6 1.2.3-.4s-2.1-2.1-2.1-1.3zM82 194c-1.2.7-1 .9.8.7 1.2 0 2.2-.5 2.2-.9 0-1.1-1.2-1-3 .2zM133.8 193.7c.7.3 1.6.2 1.9-.1.4-.3-.2-.6-1.3-.5-1.1 0-1.4.3-.6.6zM140.4 194.1c-.4.7-.3.9.4.5.5-.3 1.3 0 1.5.6.4.9.6 1 .6.1.1-1.7-1.6-2.5-2.5-1.2zM225.8 194.8c-1.2 1.5-1.1 1.6.5.3 1.1-.9 1.7-1 1.7-.2 0 .6.5 1.1 1 1.1 1.5 0 1.2-1.7-.4-2.3-.8-.3-2 .2-2.8 1.1zM98.5 195.1c-.4.6-.5 1.2-.2 1.5.2.3.7-.2 1-1.1.7-1.7.1-2-.8-.4zM269.2 195.2c.5 1.5 2.8 2.3 2.8 1 0-.5-.7-1.3-1.6-1.6-1-.4-1.4-.1-1.2.6zM41 196.1c0 .5.5.7 1 .4.6-.3 1-.8 1-1.1 0-.2-.4-.4-1-.4-.5 0-1 .5-1 1.1zM110 197c-1.4 1-2.3 2.1-2 2.3.3.2 1.6-.6 3-1.9 3-2.9 2.5-3.1-1-.4zM116.1 196.4c.5.6.9 1.8.9 2.8 0 1 .4 1.8 1 1.8.5 0 .9-1 .7-2.3-.1-1.6.3-2.2 1.6-2.1 1 .1 1.5-.1 1.2-.5-.4-.3-2-.6-3.5-.6-1.8 0-2.5.3-1.9.9zM252.9 196.3c.6.8.7 1.8.3 2.2-.4.5-.1.5.6.1 1-.6 1-1.1.1-2.2-.6-.8-1.4-1.4-1.6-1.4-.3 0 0 .6.6 1.3zM59.6 196.8c-.2.4.4.9 1.5.9 1.1.1 1.7-.2 1.4-.8-.7-1.1-2.2-1.2-2.9-.1zM209 196.4c0 .2.7.7 1.6 1 .8.3 1.2.2.9-.4-.6-1-2.5-1.4-2.5-.6zM241.5 197c.3.5.8 1 1.1 1 .2 0 .4-.5.4-1 0-.6-.5-1-1.1-1-.5 0-.7.4-.4 1zM45.6 198.3c.3 1 .9 1.5 1.2 1.2.3-.3 0-1.1-.7-1.8-1-.9-1.1-.8-.5.6zM77.5 198c-.3.5-.1 1 .4 1 .6 0 1.1-.5 1.1-1 0-.6-.2-1-.4-1-.3 0-.8.4-1.1 1zM86.7 198.7c-1 .9-.9 2.3.1 2.3.5 0 .9-.7.9-1.5 0-1.7-.1-1.8-1-.8zM121.8 198.7c.7.3 1.6.2 1.9-.1.4-.3-.2-.6-1.3-.5-1.1 0-1.4.3-.6.6zM234.4 199.5c-1.2.8-2.5 1.1-2.9.7-.5-.4-.5-.2-.2.5.5.8 1.3.8 3.2 0 1.4-.7 2.5-1.5 2.5-2 0-1-.3-.9-2.6.8zM275.9 199.7c-1.3 1.6-1.2 1.7.4.4.9-.7 1.7-1.5 1.7-1.7 0-.8-.8-.3-2.1 1.3zM74.7 201.3c-.3.7.3 1.3 1.4 1.3 1.3 0 1.5-.3.7-1.3-.6-.7-1.2-1.3-1.3-1.3-.2 0-.5.6-.8 1.3zM244 201.1c0 .5.5.7 1 .4.6-.3 1-.8 1-1.1 0-.2-.4-.4-1-.4-.5 0-1 .5-1 1.1zM258.9 201.7c-1.3 1.6-1.2 1.7.4.4 1.6-1.3 2.1-2.1 1.3-2.1-.2 0-1 .8-1.7 1.7zM95.6 202.3c.3 1 .9 1.5 1.2 1.2.3-.3 0-1.1-.7-1.8-1-.9-1.1-.8-.5.6zM98.3 202.5c0 .8.4 1.2.9.9.5-.3.6-1 .3-1.5-.9-1.3-1.2-1.1-1.2.6zM105.1 202.4c-.9 1-.9 1.6-.1 2.1.6.4 1 .3.9-.2-.3-2 .2-2.7 1.1-1.3.6.9 1 1 1 .3 0-1.9-1.7-2.4-2.9-.9zM113.9 201.2c0 .2-.2 1.3-.5 2.6-.3 1.9-.2 2.1 1 1 .9-.8 1-1.5.4-1.9-.6-.4-.5-.9.3-1.2 1-.4 1-.6.2-.6-.7-.1-1.3 0-1.4.1zM124.5 202c.3.5 1.1 1 1.6 1 .6 0 .7-.5.4-1-.3-.6-1.1-1-1.6-1-.6 0-.7.4-.4 1zM188 202.1c0 .5.5.7 1 .4.6-.3 1-.8 1-1.1 0-.2-.4-.4-1-.4-.5 0-1 .5-1 1.1zM200.3 203.5c0 .8.4 1.2.9.9.5-.3.6-1 .3-1.5-.9-1.3-1.2-1.1-1.2.6zM101.1 204.6c0 1.1.3 1.4.6.6.3-.7.2-1.6-.1-1.9-.3-.4-.6.2-.5 1.3zM238.6 203.8c-.3.5.1.9.9.9s1.2-.4.9-.9c-.3-.4-.7-.8-.9-.8-.2 0-.6.4-.9.8zM86 205.5c-1.1 1.3-1 1.4.4.9.9-.3 1.6-1 1.6-1.5 0-1.3-.6-1.1-2 .6zM120.5 205c.3.5.8 1 1.1 1 .2 0 .4-.5.4-1 0-.6-.5-1-1.1-1-.5 0-.7.4-.4 1zM65.3 206.5c0 .8.4 1.2.9.9.5-.3.6-1 .3-1.5-.9-1.3-1.2-1.1-1.2.6zM115.6 206.3c.3 1 .9 1.5 1.2 1.2.3-.3 0-1.1-.7-1.8-1-.9-1.1-.8-.5.6zM129.5 207c.1 1.1.5 2.3 1 2.7.4.5.5.3.2-.4-.4-.6-.2-1.3.4-1.5.7-.2.6-.8-.3-1.6-1.2-.9-1.4-.8-1.3.8zM135 206c-.9.6-1 1-.3 1 .6 0 1.5-.5 1.8-1 .8-1.2.4-1.2-1.5 0zM186 206.2c0 .4.4.8.9.8.6 0 1.2-.4 1.5-.8.3-.5-.1-.9-.9-.9s-1.5.4-1.5.9zM74.6 206.9c-.4.5.1.8.9.7 2.1-.3 3.1-1.6 1.2-1.6-.9 0-1.8.4-2.1.9zM89.8 206.7c.7.3 1.6.2 1.9-.1.4-.3-.2-.6-1.3-.5-1.1 0-1.4.3-.6.6zM110.4 207.2c-.4.6-.3.8.4.4.5-.3 1.2-.1 1.4.5.2.7.9 1 1.6.8.8-.3.5-.9-.7-1.6-1.5-.9-2.2-1-2.7-.1zM208 207.8c0 .5.7.9 1.5.9s1.2-.4.9-.9c-.3-.4-.9-.8-1.5-.8-.5 0-.9.4-.9.8zM249.5 207.9c-.3.5-.2 1.2.3 1.5.5.3.9-.1.9-.9 0-1.7-.3-1.9-1.2-.6zM191.6 209.3c-1.2.9-1.6 2.1-1.2 4 .2 1.5.1 2.9-.4 3.2-1.1.7-.1 3.5 1.2 3.5.6 0 .6-.6-.1-1.4-1-1.1-.8-1.7.6-2.5 1-.6 1.3-1.1.8-1.1-2 0-1.4-4 .8-5.5 1.2-.8 1.7-1.5 1.1-1.5-.6 0-1.8.6-2.8 1.3zM243 209.1c0 .5.5.7 1 .4.6-.3 1-.8 1-1.1 0-.2-.4-.4-1-.4-.5 0-1 .5-1 1.1zM108.5 210c-.3.5-.1 1 .4 1 .6 0 1.1-.5 1.1-1 0-.6-.2-1-.4-1-.3 0-.8.4-1.1 1zM220.3 210.5c0 .8.4 1.5.9 1.5.4 0 .8-.4.8-.9 0-.6-.4-1.2-.8-1.5-.5-.3-.9.1-.9.9zM86 211c0 .5.5 1 1.1 1 .5 0 .7-.5.4-1-.3-.6-.8-1-1.1-1-.2 0-.4.4-.4 1zM119.3 211.8c1 1 1.5 2.1 1.2 2.4-.3.2.2.5 1 .5 1.2 0 1-.6-.7-2.4-2.5-2.7-3.9-3.2-1.5-.5zM82 211.4c0 .2.7.7 1.6 1 .8.3 1.2.2.9-.4-.6-1-2.5-1.4-2.5-.6zM90.8 211.7c.7.3 1.6.2 1.9-.1.4-.3-.2-.6-1.3-.5-1.1 0-1.4.3-.6.6zM244.8 212.7c.6.2 1.8.2 2.5 0 .6-.3.1-.5-1.3-.5-1.4 0-1.9.2-1.2.5zM127 214.1c0 .5-.6.7-1.2.3-1-.6-1-.5-.1.8.7.8 1 1.8.6 2.1-.3.4.2.9 1.1 1.3 1 .4 2.2.2 2.8-.4.7-.7.4-1.2-1-1.7-1.3-.4-1.9-1.2-1.5-2.1.3-.7.2-1.4-.1-1.4-.3 0-.6.5-.6 1.1zM209.7 215.1c.4 1.3.8 1.8 1.1 1 .2-.7-.1-1.8-.6-2.3-.8-.8-.9-.4-.5 1.3zM115.3 215.5c0 .8.4 1.2.9.9.5-.3.6-1 .3-1.5-.9-1.3-1.2-1.1-1.2.6zM194 216c-.6 1.1-.8 2-.6 2 .3 0 1-.9 1.6-2 .6-1.1.8-2 .6-2-.3 0-1 .9-1.6 2zM218 215c-.9.6-1 1-.3 1 .6 0 1.5-.5 1.8-1 .8-1.2.4-1.2-1.5 0zM241.3 215.5c0 .8.4 1.2.9.9.5-.3.6-1 .3-1.5-.9-1.3-1.2-1.1-1.2.6zM94.9 216.7c-1.3 1.6-1.2 1.7.4.4.9-.7 1.7-1.5 1.7-1.7 0-.8-.8-.3-2.1 1.3zM113.2 217c0 1.4.2 1.9.5 1.2.2-.6.2-1.8 0-2.5-.3-.6-.5-.1-.5 1.3zM226.5 216c.3.5.8 1 1.1 1 .2 0 .4-.5.4-1 0-.6-.5-1-1.1-1-.5 0-.7.4-.4 1zM82.6 217.7c-.6 1.4-.5 1.5.5.6.7-.7 1-1.5.7-1.8-.3-.3-.9.2-1.2 1.2zM218.3 218.5c0 .8.4 1.2.9.9.5-.3.6-1 .3-1.5-.9-1.3-1.2-1.1-1.2.6zM234.6 217.8c-.3.5.1.9.9.9s1.2-.4.9-.9c-.3-.4-.7-.8-.9-.8-.2 0-.6.4-.9.8zM107 218.4c0 .2.8 1 1.8 1.7 1.5 1.3 1.6 1.2.3-.4s-2.1-2.1-2.1-1.3zM260.3 223.1c-1.8 1.2-3.3 2.5-3.3 3 0 1.3 1.2 1.1 3.4-.6 1.1-.8 2.8-1.5 3.8-1.5s1.8-.4 1.8-.9c0-.4 1.2-.6 2.8-.3 1.5.2 2.4.2 2.1-.2-1.6-1.7-7.5-1.4-10.6.5zM80.1 223.6c0 1.1.3 1.4.6.6.3-.7.2-1.6-.1-1.9-.3-.4-.6.2-.5 1.3zM42.1 229.6c-1 .7-2 1.1-2.3.9-.3-.3-.5.2-.5 1 0 1.6.9 1.9 2.1.8 1.2-1.2 10.1-.2 11.2 1.3 1.4 1.8 2.4 1.8 2.4-.1 0-.8-.5-1.5-1.1-1.5-.5 0-.8-.4-.5-.9 1.4-2.2-8.4-3.5-11.3-1.5zM265.6 242.8c-.3.5.1.9.9.9s1.2-.4.9-.9c-.3-.4-.7-.8-.9-.8-.2 0-.6.4-.9.8zM29.6 244.2c.3.4 1.1.5 1.9.1 2.1-.7 1.9-1.2-.4-1-1.1 0-1.8.5-1.5.9zM292.6 253.3c.3 1 .9 1.5 1.2 1.2.3-.3 0-1.1-.7-1.8-1-.9-1.1-.8-.5.6zM286.9 256.8c-.3 2-.2 2.9.4 2.3.5-.5.7-1.9.5-3.2-.3-2-.5-1.9-.9.9zM79.4 261.1c-.4.7-.3.9.4.5.6-.3 1.5.2 2.1 1.1.6 1 1.1 1.3 1.1.7 0-2-2.7-3.7-3.6-2.3zM52.5 264.1c-.4.6-.5 1.2-.2 1.5.2.3.7-.2 1-1.1.7-1.7.1-2-.8-.4zM255.6 264.3c-1.6 1.2-1.6 1.3.2 1.3 1 0 1.9-.6 1.9-1.3 0-.7-.1-1.3-.2-1.3s-.9.6-1.9 1.3zM46.5 275.1c-1.1 1.6-.1 1.9 1.3.3.7-.8.8-1.4.3-1.4s-1.3.5-1.6 1.1zM254.7 280.1c.7.7 1.5 1 1.8.7.3-.3-.2-.9-1.2-1.2-1.4-.6-1.5-.5-.6.5z"/></svg>